<svg xmlns="http://www.w3.org/2000/svg" width="24" height="24" viewBox="0 0 24 24"><defs><style>.a,.b{fill:none;}.b{stroke:#a5a4bf;stroke-miterlimit:10;}</style></defs><rect class="a" width="24" height="24"/><path class="b" d="M970.887,194.654c.113.03.3.072.481.127.341.1.681.209,1.018.322a.27.27,0,0,0,.255-.04q.638-.386,1.291-.749a.261.261,0,0,0,.153-.189c.088-.407.181-.814.271-1.221a1.065,1.065,0,0,1,1.132-.911h2.221a1.062,1.062,0,0,1,1.117.889c.091.407.183.813.27,1.221a.29.29,0,0,0,.168.214c.431.237.855.487,1.276.742a.27.27,0,0,0,.254.045c.405-.135.814-.26,1.221-.386a1.048,1.048,0,0,1,1.3.5q.576.988,1.144,1.98a1.062,1.062,0,0,1-.207,1.389c-.316.3-.639.586-.953.885a.278.278,0,0,0-.078.179q-.009.78,0,1.561a.277.277,0,0,0,.074.18c.31.3.628.581.941.874a1.068,1.068,0,0,1,.209,1.428q-.554.963-1.111,1.924a1.057,1.057,0,0,1-1.342.521c-.4-.124-.8-.245-1.19-.376a.271.271,0,0,0-.255.04q-.638.387-1.29.751a.262.262,0,0,0-.154.188c-.088.407-.181.814-.271,1.221a1.066,1.066,0,0,1-1.133.911h-2.221a1.064,1.064,0,0,1-1.117-.89c-.091-.407-.183-.813-.27-1.221a.291.291,0,0,0-.168-.215c-.427-.234-.847-.479-1.263-.732a.3.3,0,0,0-.284-.049c-.4.135-.8.258-1.205.382a1.054,1.054,0,0,1-1.3-.512q-.566-.975-1.128-1.952a1.063,1.063,0,0,1,.212-1.414q.463-.433.933-.858a.259.259,0,0,0,.088-.227q-.013-.747,0-1.5a.259.259,0,0,0-.084-.228c-.314-.282-.624-.57-.933-.858a1.067,1.067,0,0,1-.209-1.427q.571-.991,1.144-1.981A1.079,1.079,0,0,1,970.887,194.654Zm5.81,9.293a3.517,3.517,0,1,0-3.614-3.4A3.523,3.523,0,0,0,976.7,203.947Z" transform="translate(-964.593 -188.432)"/></svg>