<svg xmlns="http://www.w3.org/2000/svg" width="24" height="24" viewBox="0 0 24 24"><defs><style>.a{fill:none;}.b{fill:#556575;opacity:0.3;}</style></defs><g transform="translate(-24.208 -23.792)"><rect class="a" width="24" height="24" transform="translate(24.208 23.792)"/><path class="b" d="M625.074,318h.4a3.666,3.666,0,0,1,1.1.415q5.671,3.256,11.341,6.513a3.747,3.747,0,0,1,.758.571,1.431,1.431,0,0,1,.1,2.046,2.97,2.97,0,0,1-.86.682q-5.665,3.249-11.333,6.494a3.812,3.812,0,0,1-.875.363,1.45,1.45,0,0,1-1.827-.938,3.1,3.1,0,0,1-.17-1.135q0-6.437,0-12.875a4.515,4.515,0,0,1,.026-.518,1.962,1.962,0,0,1,.549-1.243A1.6,1.6,0,0,1,625.074,318Z" transform="translate(-593.28 -290.781)"/></g></svg>