<svg xmlns="http://www.w3.org/2000/svg" width="22" height="22" viewBox="0 0 22 22"><defs><style>.a{fill:none;}.b{fill:#556575;stroke:rgba(0,0,0,0);stroke-miterlimit:10;opacity:0.4;}</style></defs><rect class="a" width="22" height="22"/><path class="b" d="M7.595,18h0A9.051,9.051,0,1,1,18,9.055a9.085,9.085,0,0,1-2.183,5.912A8.99,8.99,0,0,1,10.408,18V11.673h2.1l.4-2.618h-2.5v-1.7a1.3,1.3,0,0,1,1.467-1.414h1.134V3.714a13.787,13.787,0,0,0-2.014-.177,3.181,3.181,0,0,0-3.4,3.523V9.055H5.309v2.618H7.595V18Z" transform="translate(2 2)"/></svg>