<svg xmlns="http://www.w3.org/2000/svg" width="22" height="22" viewBox="0 0 22 22"><defs><style>.a{fill:none;}.b{fill:#556575;opacity:0.4;}</style></defs><rect class="a" width="22" height="22"/><path class="b" d="M893.475,493.55c-2.591,0-5.181-.009-7.772.006a1.346,1.346,0,0,1-1.363-1.125,1.457,1.457,0,0,1-.014-.2q0-7.833,0-15.667a1.3,1.3,0,0,1,1.318-1.33c.829-.006,1.658,0,2.488,0q6.579,0,13.159,0a1.332,1.332,0,0,1,1.309.933,1.566,1.566,0,0,1,.057.387q0,7.842,0,15.684a1.3,1.3,0,0,1-1.309,1.321c-.978.007-1.956,0-2.934,0Zm.627-10.275c0-.368-.007-.682,0-1,0-.155-.041-.208-.2-.206-.749.008-1.5.009-2.247,0-.18,0-.218.059-.218.226q.007,4.178,0,8.356c0,.172.047.228.222.227q1.166-.012,2.333,0c.176,0,.22-.055.219-.226q-.01-2.1,0-4.2a5.12,5.12,0,0,1,.071-.868,1.364,1.364,0,0,1,1.011-1.231,2.348,2.348,0,0,1,.593-.055,1.124,1.124,0,0,1,1.211.963,5.067,5.067,0,0,1,.111,1.068c.012,1.441.007,2.883,0,4.324,0,.169.046.231.223.229q1.166-.012,2.333,0c.167,0,.211-.055.21-.217q-.008-2.325,0-4.65a8.124,8.124,0,0,0-.178-1.888,2.738,2.738,0,0,0-1.152-1.8,3.045,3.045,0,0,0-1.338-.439,3.614,3.614,0,0,0-1.721.145A2.957,2.957,0,0,0,894.1,483.275Zm-7.09,3.209c0,1.4,0,2.79,0,4.185,0,.169.054.213.215.212q1.174-.01,2.349,0c.151,0,.209-.04.209-.2q-.007-4.2,0-8.4c0-.166-.06-.2-.21-.2-.772.006-1.543,0-2.315,0-.245,0-.245,0-.245.238Zm1.374-5.582a1.592,1.592,0,1,0-1.581-1.591A1.583,1.583,0,0,0,888.386,480.9Z" transform="translate(-882.492 -473.39)"/></svg>