<svg xmlns="http://www.w3.org/2000/svg" width="22" height="22" viewBox="0 0 22 22"><defs><style>.a{fill:none;}.b{fill:#556575;opacity:0.4;}</style></defs><rect class="a" width="22" height="22"/><path class="b" d="M17.64,5.248c.011.163.011.327.011.491A10.742,10.742,0,0,1,6.836,16.555v0a10.761,10.761,0,0,1-5.827-1.7,7.735,7.735,0,0,0,.9.055,7.627,7.627,0,0,0,4.721-1.63,3.806,3.806,0,0,1-3.551-2.64A3.794,3.794,0,0,0,4.8,10.567,3.8,3.8,0,0,1,1.75,6.841V6.792a3.773,3.773,0,0,0,1.725.476A3.8,3.8,0,0,1,2.3,2.194a10.792,10.792,0,0,0,7.834,3.972A3.8,3.8,0,0,1,16.611,2.7a7.619,7.619,0,0,0,2.414-.923,3.814,3.814,0,0,1-1.671,2.1,7.586,7.586,0,0,0,2.183-.6A7.734,7.734,0,0,1,17.64,5.248Z" transform="translate(0.727 2.089)"/></svg>