<svg xmlns="http://www.w3.org/2000/svg" width="22" height="22" viewBox="0 0 22 22"><defs><style>.a{fill:none;}.b{fill:#556575;opacity:0.4;}</style></defs><rect class="a" width="22" height="22"/><path class="b" d="M1.271,13.378A8.917,8.917,0,0,1,9.038,0a8.926,8.926,0,0,1,6.34,2.616A8.844,8.844,0,0,1,18,8.926a8.954,8.954,0,0,1-8.962,8.919h0A8.988,8.988,0,0,1,4.751,16.76L0,18Zm3.972,1.928a7.465,7.465,0,0,0,3.791,1.033h0a7.442,7.442,0,0,0,7.449-7.414A7.432,7.432,0,0,0,9.041,1.506,7.411,7.411,0,0,0,2.727,12.865l.177.28-.753,2.736,2.819-.736ZM10.5,13.078a12.9,12.9,0,0,1-1.277-.469A9.964,9.964,0,0,1,5.4,9.243a4.324,4.324,0,0,1-.914-2.306,2.494,2.494,0,0,1,.784-1.859.824.824,0,0,1,.6-.279c.149,0,.3,0,.429.008h.05c.13,0,.293,0,.453.382.187.446.634,1.543.69,1.655a.409.409,0,0,1,.019.39,1.523,1.523,0,0,1-.224.372c-.112.13-.235.291-.336.39s-.229.232-.1.455A6.718,6.718,0,0,0,8.095,10,6.122,6.122,0,0,0,9.9,11.1c.224.112.355.093.485-.056s.56-.651.709-.874.3-.186.5-.112,1.306.614,1.53.725.373.167.429.26a1.855,1.855,0,0,1-.131,1.06,2.306,2.306,0,0,1-1.512,1.06,3.682,3.682,0,0,1-.543.043A2.856,2.856,0,0,1,10.5,13.078Z" transform="translate(2 2)"/></svg>