<svg xmlns="http://www.w3.org/2000/svg" width="24" height="24" viewBox="0 0 24 24"><defs><style>.a,.b{fill:none;}.b{stroke:#a4afb7;stroke-linecap:round;stroke-miterlimit:10;}</style></defs><rect class="a" width="24" height="24"/><g transform="translate(-954.559 -36.997)"><path class="b" d="M968.85,54.553a2.58,2.58,0,0,1-5.16,0" transform="translate(0.085 0.23)"/><path class="b" d="M960.99,46.058a5.332,5.332,0,0,1,5.332-5.333h0a5.332,5.332,0,0,1,5.333,5.333v2.529a7.633,7.633,0,0,0,.571,2.636,7.011,7.011,0,0,0,1.671,2.135.879.879,0,0,1-.687,1.423H959.435a.879.879,0,0,1-.687-1.423,7.031,7.031,0,0,0,1.672-2.135,7.7,7.7,0,0,0,.57-2.636Z" transform="translate(0 0)"/></g></svg>